<svg width="360" height="225" fill="none" xmlns="http://www.w3.org/2000/svg"><rect width="360" height="225" rx="4" fill="#48F"/><path d="M96.8 100.7h-4.6l8.2 23.3h5.2l8.2-23.3H109l-6 18.3h-.2l-6.1-18.3zm25 23.6c4.1 0 7-2 7.7-5l-3.9-.4c-.5 1.5-1.9 2.2-3.7 2.2-2.6 0-4.4-1.7-4.4-4.7h12.1v-1.3c0-6-3.6-8.8-8-8.8-5 0-8.2 3.7-8.2 9 0 5.6 3.2 9 8.5 9zm-4.3-10.7a4.2 4.2 0 014.2-4c2.4 0 4 1.7 4 4h-8.2zm19-12.9h-4V124h4v-23.3zm10.2 23.6c3 0 4.3-1.8 5-3h.2v2.7h4v-23.3h-4v8.7h-.2c-.7-1.2-2-3-5-3-4 0-7.2 3-7.2 8.9 0 5.7 3 9 7.2 9zm1.1-3.4c-2.7 0-4.1-2.4-4.1-5.6 0-3.3 1.4-5.6 4.1-5.6 2.7 0 4.1 2.2 4.1 5.6 0 3.4-1.5 5.6-4 5.6zm23-4.2c0 2.6-1.9 4-3.7 4-2 0-3.3-1.5-3.3-3.7v-10.5h-4.1v11.2c0 4.2 2.4 6.5 5.8 6.5 2.6 0 4.5-1.3 5.3-3.3h.1v3.1h4v-17.5h-4v10.2zM186 124h4.2v-8.5h4.3l4.6 8.5h4.7l-5-9.2c2.7-1.1 4.1-3.5 4.1-6.6 0-4.5-2.8-7.5-8.2-7.5H186V124zm4.2-12v-7.8h3.9c3.1 0 4.5 1.5 4.5 4 0 2.4-1.4 3.8-4.5 3.8h-3.9zm20.8 12.4c2.8 0 4.4-1.3 5.1-2.8h.2v2.4h4v-11.7c0-4.6-3.8-6-7.2-6-3.6 0-6.4 1.7-7.4 4.8l3.9.6c.4-1.2 1.6-2.2 3.6-2.2 1.9 0 3 1 3 2.7 0 1.2-1.3 1.3-4.4 1.6-3.4.4-6.6 1.4-6.6 5.3 0 3.4 2.5 5.3 5.8 5.3zm1-3c-1.6 0-2.9-.9-2.9-2.4s1.4-2.2 3.3-2.5c1-.1 3.2-.4 3.7-.8v2c0 2-1.5 3.6-4 3.6zm20.6-14.9h-3.7v-1.3c0-1.4.6-2.2 2.2-2.2.6 0 1.1.2 1.5.3l.8-3.2c-.5-.2-1.7-.5-3.1-.5-3 0-5.5 1.8-5.5 5.3v1.6h-2.5v3.2h2.5V124h4.1v-14.3h3.7v-3.2zm2.7 17.5h4v-2.8h.3c.7 1.3 2 3.1 5 3.1 4.1 0 7.2-3.3 7.2-9 0-5.8-3.2-9-7.2-9-3 0-4.4 1.9-5 3.1h-.2v-8.7h-4V124zm4-8.7c0-3.4 1.5-5.6 4.2-5.6s4.1 2.3 4.1 5.6c0 3.2-1.4 5.6-4.1 5.6-2.7 0-4.1-2.2-4.1-5.6zm15.4 8.7h4v-17.5h-4V124zm.5-19.8h3l3.5-5.1h-4l-2.5 5.2zm11.3-3.5h-4.1V124h4v-23.3z" fill="#fff"/></svg>