<svg width="360" height="225" fill="none" xmlns="http://www.w3.org/2000/svg"><rect width="360" height="225" rx="4" fill="#FF0EB4"/><path d="M129.2 132.3h15.4v-10h-20.3V102H114V117c0 8.9 6.3 15.2 15.2 15.2Zm30.6 0h2v-10h-6.9V107c0-8.8-6.2-15.1-15.1-15.1h-15.5v10h20.3V117c0 8.9 6.3 15.2 15.2 15.2ZM174 132.3h14L203 92H192l-10.6 30.3h-.7L170 92h-11.2l15.2 40.3ZM224.6 123.2a11.1 11.1 0 0 1 0-22.2 11.1 11.1 0 0 1 0 22.2Zm0 10c11.7 0 21.4-9.5 21.4-21 0-11.7-9.7-21.2-21.4-21.2a21.4 21.4 0 0 0-21.5 21.1c0 11.6 9.7 21.1 21.5 21.1Z" fill="#fff"/></svg>