<svg width="360" height="225" fill="none" xmlns="http://www.w3.org/2000/svg"><rect width="360" height="225" rx="4" fill="#E6E9ED"/><g clip-path="url(#clip0)" fill-rule="evenodd" clip-rule="evenodd"><path d="M219.179 96.332c-9.117 0-16.536 7.433-16.536 16.569s7.419 16.569 16.536 16.569c9.119 0 16.537-7.433 16.537-16.569s-7.418-16.569-16.537-16.569zm0 37.431c-11.48 0-20.82-9.359-20.82-20.862 0-11.503 9.34-20.862 20.82-20.862 11.481 0 20.821 9.359 20.821 20.862 0 11.503-9.34 20.862-20.821 20.862zM200.399 92.028h-4.573l-13.319 34.919-13.348-34.92h-4.602l15.949 41.696h4.002l15.891-41.695zM140.82 96.293c-9.117 0-16.536 7.433-16.536 16.569s7.419 16.569 16.536 16.569c9.119 0 16.537-7.433 16.537-16.569s-7.418-16.57-16.537-16.57zm0 37.43c-11.48 0-20.82-9.358-20.82-20.861C120 101.358 129.34 92 140.82 92c11.482 0 20.822 9.358 20.822 20.862 0 11.503-9.34 20.861-20.822 20.861z" fill="#232628"/><path d="M156.131 133.762h6.427V92h-6.427v41.762z" fill="#EC008C"/></g><defs><clipPath id="clip0"><path fill="#fff" d="M120 92h120v41.967H120z"/></clipPath></defs></svg>