<svg width="360" height="225" fill="none" xmlns="http://www.w3.org/2000/svg"><rect width="360" height="225" rx="4" fill="#F8C000"/><g clip-path="url(#clip0)" fill="#2D3A8A"><path d="M106.8 114v13h-4.4v-13L90 97h5.3l9.3 12.7 9.2-12.7h5.5l-12.5 17zM167.1 123.3c-2.6 3.4-7.4 4.4-11.5 4.4-4.2 0-9-1.3-11.5-5-1.5-2.2-1.7-4.4-1.7-7V97h4.4v18.7c0 2 .2 3.8 1.7 5.4 2 1.9 5.2 2.2 7.8 2.2 5.6 0 8.6-1.7 8.6-7.6V97h4.4v18.7c0 3-.2 5.1-2.2 7.6zM194.1 127l-1.4-3 19.4-22.6h-17.7V97h23.2l1.6 3-19.5 22.6h19.7v4.5h-25.3zM267.6 123.3c-2.6 3.4-7.4 4.4-11.5 4.4-4.3 0-9-1.3-11.5-5-1.5-2.2-1.7-4.4-1.7-7V97h4.4v18.7c0 2 .1 3.8 1.7 5.4 2 1.9 5.2 2.2 7.8 2.2 5.6 0 8.6-1.7 8.6-7.6V97h4.4v18.7c0 3-.2 5.1-2.2 7.6z"/></g><defs><clipPath id="clip0"><path fill="#fff" d="M90 97h180v30.7H90z"/></clipPath></defs></svg>