<svg width="360" height="225" fill="none" xmlns="http://www.w3.org/2000/svg"><rect width="360" height="225" rx="4" fill="#F1EFDE"/><g clip-path="url(#clip0)" fill="#000"><path d="M125.98 108.93c.1.09.29.28.49.44 2.4 1.9 3.4 4.56 3.8 7.43.28 2.05.4 4.12.35 6.19a19.92 19.92 0 01-4.5 12.52c-1.26 1.59-2.56 3.12-4.58 3.63-1.59.4-3.25.59-4.89.73-1.35.11-2.73.02-4.1.02-1.12 0-2.02-.77-2.05-1.88-.09-3.12-.13-6.22-.17-9.33-.06-4.76-.16-9.5-.16-14.26 0-5.79.12-11.58.13-17.36 0-2.54-.12-5.09-.18-7.62a3.54 3.54 0 013.38-3.5c2.18 0 4.37-.1 6.54.04 4.8.27 8.03 3.3 8.62 8.08.5 4.05.22 8.07-1.13 11.95-.34 1-1 1.9-1.55 2.92zm-10.39 25.09h2.46c1.85.01 3.28-.87 4.45-2.18 1.26-1.4 1.77-3.15 2.24-4.9.66-2.45.56-4.97.52-7.47-.02-1.2-.31-2.41-.67-3.56-.43-1.38-1.24-2.59-2.73-3-2.1-.57-4.25-.38-6.54-.36l.27 21.47zm-.09-26.9c1.04-.04 2.07-.2 3.08-.11 1.48.13 2.46-.57 3.24-1.66.47-.63.85-1.33 1.14-2.06 1-2.73 1.09-5.52.57-8.38-.33-1.84-1.4-2.94-3.11-3.25-1.64-.3-3.35-.26-4.92-.37v15.84zM217.21 86.16h5.74v.99c.07 9.11.13 18.23.22 27.35.04 3.62.27 7.25.23 10.87-.03 3.1-.52 6.15-2.08 8.92-1.64 2.91-4 4.96-7.35 5.52-3.44.59-6.8-.57-8.72-3.86a15.72 15.72 0 01-2.13-7.96c-.01-1.03-.17-2.06-.14-3.1.07-2.35.29-4.71.3-7.07.09-9.94.1-19.88.17-29.83.02-2.4.23-2.03 2.18-1.94 1.15.05 2.28 0 3.47 0V88l-.06 26.63c0 2.87-.02 5.73-.03 8.6 0 2.06-.08 4.12.03 6.18.08 1.68.9 3.1 2.16 4.22.54.49 1.24.52 1.92.25 2.22-.85 3.42-2.56 3.94-4.8.65-2.84.6-5.73.53-8.6-.02-.85.04-1.7.02-2.54-.07-4.23-.18-8.46-.24-12.69-.07-6.06-.1-12.13-.16-18.2v-.89zM140.88 86.06v1.71l-.05 26.8c0 1.08.13 2.18.1 3.27-.08 2.52-.3 5.05-.3 7.57 0 2.31-.22 4.7 1.15 6.8.5.75.96 1.57 1.91 1.76 1.21.25 2.13-.44 3-1.14 1.76-1.42 2.25-3.45 2.47-5.5.47-4.42.32-8.86.06-13.3-.12-1.86 0-3.72-.02-5.58l-.2-21.54c0-.24.02-.48.04-.74h5.61c.04.11.07.22.08.34l.14 16.3c.03 3.98.03 7.96.09 11.95.05 3.52.27 7.04.24 10.55-.04 3.16-.52 6.28-2.13 9.08-1.69 2.93-4.12 5.03-7.56 5.47-4.02.52-7.13-1.06-8.95-4.76a16.18 16.18 0 01-1.67-6.86c-.02-1.09-.17-2.18-.12-3.26.6-12.33.2-24.66.46-36.98.05-2.39.22-2.03 2.2-1.94 1.13.04 2.27 0 3.45 0zM242.8 114.61a44.32 44.32 0 017.04 24.26l-5.35.24a38.14 38.14 0 00-6.28-20.96l-4.35 1.04.28 19.51h-5.27v-4.75c-.05-5.16-.1-10.32-.2-15.48a3.26 3.26 0 00-.54-1.63 5.93 5.93 0 01.1-6.8c.2-.26.23-.7.23-1.05-.13-6.33-.3-12.67-.41-19-.02-.86-.11-1.95.34-2.53.42-.53 1.52-.58 2.34-.73a18.6 18.6 0 018.5.52c2.82.8 4.58 2.82 5.71 5.46 1.8 4.2 1.93 8.57 1.4 13.02-.36 3.01-1.3 5.8-3.08 8.27-.14.2-.3.4-.47.61zm-9.73-23.08l-.12.45.5 15.62c0 .16.17.45.3.47 2.05.33 3.68 1.53 5.4 2.62.35-.61.78-1.16 1.03-1.78 1.9-4.77 2-9.54-.05-14.3a3.85 3.85 0 00-2.59-2.33c-1.45-.36-2.97-.5-4.47-.75zm2.78 22.19c-1.04-1.03-2.1-1.64-3.48-1.52-.69.06-1.08.61-1.07 1.47.01.7.33 1.2 1.06 1.15a9.66 9.66 0 002.14-.36c.46-.14.86-.47 1.35-.74zM179.33 121.1c1.52.72 3 1.4 4.46 2.14.16.08.28.49.24.72-.24 1.3-.64 2.57-.8 3.87-.48 3.83 1.27 6.44 5.48 6.5.92 0 1.84-.1 2.73-.32 1.96-.5 2.49-1.6 2.68-3.4.3-2.93-.83-5.46-2.34-7.8-1.34-2.04-2.92-3.94-4.47-5.84-3.28-4.03-6.72-7.96-8.7-12.88-1.43-3.53-1.92-7.15-.92-10.88a10.48 10.48 0 019.26-8.04c2.5-.32 4.86-.12 7.14 1.11a8.33 8.33 0 014.42 6.31c.44 2.53.25 5.06.07 7.6-.06.8-.09 1.62-.14 2.55-1.42-.1-2.75-.12-4.07-.3-1.09-.13-1.28-.43-1.25-1.52.06-1.66.21-3.32.24-4.98 0-.9-.09-1.8-.28-2.67-.32-1.48-1.23-2.42-2.8-2.55-1.03-.09-2.07-.19-3.1-.08-2.57.26-3.74 1.97-4.2 4.23-.43 2.01-.25 4 .39 5.96.85 2.61 2.2 4.93 3.88 7.06 2.57 3.26 5.22 6.45 7.76 9.73 2.01 2.6 3.64 5.42 4.4 8.66.83 3.55.55 6.95-1.7 10a8.54 8.54 0 01-4.66 3.1c-2.54.71-5.14.88-7.72.17-4.07-1.12-7.13-4.95-7.65-9.12-.4-3.24.22-6.25 1.65-9.32zM165.2 133.43h6.16c1.12 0 2.24-.04 3.35.08.36.04.91.5.98.82.27 1.45.4 2.94.59 4.47l-.48.02-15.4.1c-.56 0-.78-.25-.86-.74v-.33c-.06-4.67-.18-9.34-.15-14 .06-10.27.2-20.53.33-30.8.03-2.4.16-4.79.26-7.21h5.3c-.56 15.87-.8 31.7-.08 47.59z"/></g><defs><clipPath id="clip0"><path fill="#fff" d="M110 85h140v55.07H110z"/></clipPath></defs></svg>