<svg width="360" height="225" fill="none" xmlns="http://www.w3.org/2000/svg"><rect width="360" height="225" rx="4" fill="#A67A2E"/><path fill-rule="evenodd" clip-rule="evenodd" d="M135 128.1l22.5 13.8 14.2 8.8c5 3 11.4 3 16.4 0l14.3-8.8 22.4-13.8v-22.7l-44.9 27.5-44.9-27.5V128z" fill="#fff"/><path fill-rule="evenodd" clip-rule="evenodd" d="M224.8 96.9L202.4 83 188 74.3c-5-3-11.4-3-16.4 0l-14.2 8.8L135 96.9v22.7L179.9 92l44.9 27.6V97z" fill="#000"/><path fill-rule="evenodd" clip-rule="evenodd" d="M188.5 101.8l-8.5-10-8.6 10c-5.1 6-5.1 14.9 0 21l8.6 10 8.5-10c5.2-6.1 5.2-15 0-21z" fill="#000"/></svg>