<svg width="360" height="225" fill="none" xmlns="http://www.w3.org/2000/svg"><rect width="360" height="225" rx="4" fill="#FF0EB4"/><path d="M121.4 135.5h17.9V124h-23.4v-23.4H104v17.5c0 10.2 7.2 17.4 17.4 17.4Zm35.3 0h2.2V124h-7.8v-17.4c0-10.2-7.2-17.5-17.4-17.5h-17.8v11.5h23.4v17.5c0 10.2 7.2 17.4 17.4 17.4ZM173 135.5h16.2l17.4-46.4h-12.9l-12.2 35h-.8l-12.2-35h-13l17.5 46.4ZM231.3 125.1a12.8 12.8 0 0 1 0-25.6 12.8 12.8 0 0 1 0 25.6Zm0 11.5c13.6 0 24.7-11 24.7-24.3A24.6 24.6 0 0 0 231.3 88c-13.5 0-24.7 11-24.7 24.3a24.6 24.6 0 0 0 24.7 24.3Z" fill="#fff"/></svg>