<svg width="360" height="225" fill="none" xmlns="http://www.w3.org/2000/svg"><rect width="360" height="225" rx="4" fill="#0376e1"/><path fill-rule="evenodd" clip-rule="evenodd" d="M195.8 104.4v4.6l4.6-3 4.5 3v-4.6l-4.5-3-4.6 3zM179.4 94.7L176 92l-4.6 3.1v4.8l4.6-3.2 3.5 2.6 3.6-2.6 4.6 3.2v-4.8l-4.6-3-3.6 2.5zM200.4 92l-4.6 3v4.8l4.6-3.2 4.5 3.1v-4.6l-4.5-3zM158.5 87.4l4.6 3v-6.7h8.2v6.8l4.6-3.1 3.5 2.6 3.6-2.6 4.6 3.1v-6.8h8.2v6.8l4.6-3.1 4.5 3V72h-9.1v8.7h-8.2V72h-16.3v8.7H163V72H154v18.4l4.5-3zM158.5 106l4.6 3v-4.7l-4.6-3-4.5 3v4.7l4.5-3zM163.1 99.7v-4.6l-4.6-3-4.5 3v4.6l4.5-3 4.6 3zM200.4 110.6l-4.6 3v26c4.9-5.6 8.4-12.3 9-19.4v-6.6l-4.4-3zM163.1 113.6l-4.6-3-4.5 3v6.6c.6 7.1 4.2 13.8 9.1 19.4v-26zM187.6 114.1l-4.6-3-3.6 2.4-3.5-2.5-4.6 3.1v33c2.6 1.8 5.3 3.5 8 4.8a50 50 0 008.3-5M187.6 104.7l-4.6-3.1-3.6 2.5-3.5-2.5-4.6 3v4.8l4.6-3.2 3.5 2.6 3.6-2.6 4.6 3.2" fill="#fff"/></svg>