<svg width="360" height="225" fill="none" xmlns="http://www.w3.org/2000/svg"><rect width="360" height="225" rx="4" fill="#E74C3C"/><g clip-path="url(#clip0)" fill="#fff"><path d="M128.8 146.2c1-1.7 1.6-2.5 2.8-3.5a6 6 0 014-1.6c1 0 2.3.3 3.6.8l3.1 1.4 4 1.7c1.5.5 4.8.6 6.3.3 1.6-.3 5.3-1.3 7.7-3.4 2.7-2.2 4.7-5 6-8.2l-8.9-5.6c-.8 2-1.6 2.7-3 3.5a7.7 7.7 0 01-3.9 1.3c-1.1 0-2.3-.2-3.4-.5l-3.6-1.1c-1.2-.4-2.3-1-3.7-1.4a14.4 14.4 0 00-13.4 2.3c-2.8 2-5 4.8-6.4 8.5l8.8 5.5zM221.8 106.6l-14-17.8-6.1 4.7 10.4 13.1-10.4 13.2 6.2 4.7 13.9-17.9zm17.3 0l-13.9-17.8-6.2 4.7 10.5 13.1-10.5 13.2 6.2 4.7 14-17.9zM163.2 113.4a14.6 14.6 0 0013.8 9 15 15 0 0013.7-9 14.4 14.4 0 000-11.7 15.3 15.3 0 00-7.9-7.9 14.4 14.4 0 00-16.4 3.2 14.6 14.6 0 00-4.3 10.6c0 2 .4 4 1.1 5.8zm7-5.8c0-2 .8-3.5 2-4.8 1.4-1.3 3-2 4.9-2 1.8 0 3.4.7 4.7 2 1.3 1.3 2 2.9 2 4.8s-.7 3.5-2 4.8c-1.3 1.3-3 2-4.7 2-1.9 0-3.5-.7-4.8-2-1.3-1.3-2-3-2-4.8z"/></g><defs><clipPath id="clip0"><path fill="#fff" d="M120 89h120v57.9H120z"/></clipPath></defs></svg>