<svg width="360" height="225" fill="none" xmlns="http://www.w3.org/2000/svg"><rect width="360" height="225" rx="4" fill="#201BE3"/><path d="m83.7 98.9 7.9 24.2.4 1.8c0 .3.1.4.3.4.3 0 .3-.1.4-.4 0-.7.2-1.3.4-1.8l7.8-24.3h4.8l-10.2 28.6h-6.4L79 99h4.7ZM121.1 118.2h-15.5c.3 3.3 2.5 6 6.3 6 2.8 0 4.2-1.3 5-3.8h4c-1 3.9-3.8 7.4-9.1 7.4-6.5 0-10-4.9-10-10.7 0-6.3 4-10.7 10-10.7 4.6 0 9.4 3 9.4 10.4v1.4Zm-3.7-3.3c-.3-3-2.2-5.1-5.4-5.1-3.9 0-5.5 2.3-6.1 5.1h11.5ZM127.5 98.2v29.2h-3.9V98.2h3.9ZM149.4 98.2v29.2h-3.8v-1.8c0-.7 0-1.3.4-2.2 0-.3.3-.7-.1-.8-.2 0-.3.3-.4.4-1 2.9-3.7 4.7-7 4.7-5.4 0-9.1-4.6-9.1-10.7s3.7-10.7 9.1-10.7c3.4 0 6 1.8 7 4.6 0 .1.2.5.5.4.4 0 .1-.5 0-.8-.3-.9-.4-1.5-.4-2.3v-10h3.8Zm-3.8 18.8c0-3.8-2.6-7.1-6.3-7.1-4 0-6 3.2-6 7.1 0 3.9 2 7.2 6 7.2 3.7 0 6.3-3.3 6.3-7.2ZM152 119v-12.3h3.8v11.5c0 4.8 2 6.1 4.8 6.1 3 0 6.2-3 6.2-8v-9.6h4v20.7h-4v-1.3c0-.9 0-1.7.5-2.8.1-.3.3-.7 0-.8-.3 0-.4.2-.5.3-1 2-3.5 5-7.2 5-4.8 0-7.7-2.7-7.7-8.8ZM187 98.9h10.7c8 0 10.8 3.6 10.8 8.8 0 3.7-3 6.7-7.3 7.2-.3 0-.4.1-.4.4 0 .2.2.3.4.3 4 .2 5 1.7 5.6 3.3l3 8.5h-5.1l-1.7-6.8c-.8-3-3-4-7.2-4h-4.4v10.7H187V99Zm10.4 14.2c4 0 7-2.3 7-5.4 0-3.4-2.1-5.3-6-5.3h-7v10.7h6ZM218.3 115.2c3.7-.3 7.5.1 7.4-2 0-1.7-1-3.4-5.2-3.4-3.7 0-5 1.4-5.2 3.4h-3.8c.7-4.7 4.3-6.8 9.1-6.8 4.7 0 9 1.6 9 9.2v11.8h-3.9v-2c0-.7.1-1.3.5-2.4 0-.3.2-.6 0-.8-.4 0-.5.3-.6.4-1.1 3.1-4 5.2-7.7 5.2-4 0-7.1-2.6-7.1-6.2 0-4.7 3.5-6.2 7.5-6.4Zm.2 3c-2.5.4-3.8 1.3-3.8 3.2 0 1.7 1.4 3.2 4.7 2.8 3.2-.4 6.3-2.7 6.3-8-1.2 1.5-4 1.6-7.2 2ZM238 104.7v2h5.9v3.4H238v17.3h-3.9v-17.3H231v-3.4h3.2v-2.4c0-4.5 2-6 6.3-6h3.4v3.4h-3c-2.3 0-2.8.7-2.8 3ZM250.4 108.3c0 .8-.1 1.3-.4 2.2-.1.4-.3.8 0 .9.3.1.4-.3.5-.4a7.5 7.5 0 0 1 7-4.6c5.4 0 9.2 4.5 9.2 10.7 0 6.1-3.8 10.7-9.2 10.7-3.3 0-5.8-2-7-4.8 0 0-.2-.4-.4-.3-.4.1-.2.5 0 .8.2.9.3 1.4.3 2.2v1.7h-3.9V98.2h3.9v10Zm12.3 8.7c0-3.8-2-7.1-6-7.1-3.8 0-6.3 3.2-6.3 7.1 0 3.9 2.5 7.2 6.2 7.2 4 0 6.1-3.3 6.1-7.2ZM269.3 106.7h3.9v20.7h-3.9v-20.7Zm3.5-8.1h4l-4.3 5.5h-2.6l3-5.5ZM281 98.2v29.2h-3.9V98.2h3.9Z" fill="#fff"/></svg>